<svg xmlns="http://www.w3.org/2000/svg" version="1.1" xmlns:xlink="http://www.w3.org/1999/xlink" xmlns:svgjs="http://svgjs.com/svgjs" width="1000" height="1000" preserveAspectRatio="none" viewBox="0 0 1000 1000"><g mask="url(&quot;#SvgjsMask1004&quot;)" fill="none"><rect width="1000" height="1000" x="0" y="0" fill="rgba(30, 41, 59, 1)"></rect><path d="M177.352,891.133C251.192,888.029,317.601,852.061,357.855,790.081C402.555,721.256,427.632,635.983,390.644,562.724C350.41,483.037,266.572,429.658,177.352,432.576C92.243,435.359,28.457,501.586,-13.071,575.927C-53.362,648.055,-74.215,735.73,-31.494,806.446C10.139,875.361,96.908,894.514,177.352,891.133" fill="rgba(55, 65, 81, 0.45)" class="triangle-float1"></path><path d="M773.37 168.66 a170.5 170.5 0 1 0 341 0 a170.5 170.5 0 1 0 -341 0z" fill="rgba(55, 65, 81, 0.45)" class="triangle-float1"></path><path d="M561.764,1004.017C632.795,1008.266,711.782,996.948,749.093,936.356C787.692,873.672,767.854,794.202,729.751,731.215C693.164,670.734,632.442,627.747,561.764,626.688C489.273,625.602,418.567,661.877,384.826,726.046C352.966,786.636,372.853,858.298,409.612,916.047C443.329,969.016,499.086,1000.267,561.764,1004.017" fill="rgba(55, 65, 81, 0.45)" class="triangle-float2"></path><path d="M1061.361,963.627C1142.356,957.008,1209.829,906.827,1249.63,835.976C1288.527,766.734,1297.279,682.776,1257.858,613.831C1218.17,544.419,1141.171,511.551,1061.361,506.702C970.176,501.162,870.306,511.805,818.645,587.147C761.109,671.058,755.872,786.312,811.001,871.824C862.623,951.895,966.409,971.387,1061.361,963.627" fill="rgba(55, 65, 81, 0.45)" class="triangle-float1"></path><path d="M50.26 451.98 a237.17 237.17 0 1 0 474.34 0 a237.17 237.17 0 1 0 -474.34 0z" fill="rgba(55, 65, 81, 0.45)" class="triangle-float3"></path><path d="M923.472,587.395C989.862,588.507,1051.051,551.76,1084.33,494.303C1117.69,436.707,1120.208,364.671,1085.298,308.001C1051.89,253.77,987.151,231.741,923.472,233.182C862.555,234.56,804.937,262.641,773.85,315.048C742.13,368.523,741.749,434.572,771.686,489.065C802.797,545.694,858.869,586.313,923.472,587.395" fill="rgba(55, 65, 81, 0.45)" class="triangle-float3"></path><path d="M541.92 334.65 a313.24 313.24 0 1 0 626.48 0 a313.24 313.24 0 1 0 -626.48 0z" fill="rgba(55, 65, 81, 0.45)" class="triangle-float2"></path><path d="M815.627,490.468C914.272,489.527,1007.461,437.694,1053.666,350.535C1097.353,268.125,1078.462,168.901,1027.515,90.77C981.344,19.963,900.107,-11.599,815.627,-14.515C724.531,-17.659,627.295,-0.668,576.792,75.212C521.359,158.498,519.706,268.429,569.586,355.155C619.601,442.116,715.314,491.425,815.627,490.468" fill="rgba(55, 65, 81, 0.45)" class="triangle-float3"></path></g><defs><mask id="SvgjsMask1004"><rect width="1000" height="1000" fill="#ffffff"></rect></mask><style>
            @keyframes float1 {
                0%{transform: translate(0, 0)}
                50%{transform: translate(-10px, 0)}
                100%{transform: translate(0, 0)}
            }

            .triangle-float1 {
                animation: float1 5s infinite;
            }

            @keyframes float2 {
                0%{transform: translate(0, 0)}
                50%{transform: translate(-5px, -5px)}
                100%{transform: translate(0, 0)}
            }

            .triangle-float2 {
                animation: float2 4s infinite;
            }

            @keyframes float3 {
                0%{transform: translate(0, 0)}
                50%{transform: translate(0, -10px)}
                100%{transform: translate(0, 0)}
            }

            .triangle-float3 {
                animation: float3 6s infinite;
            }
        </style></defs></svg>