<svg width='200' height='200' viewBox='1240 343 200 200' fill="none" xmlns="http://www.w3.org/2000/svg">
    <path d="M1343.7 400.44C1338.31 403.936 1334.07 408.952 1331.53 414.855C1326.93 415.835 1320.81 418.797 1320.81 418.797L1336.17 420.347C1336.17 420.347 1337.02 419.402 1337.21 418.797C1339.02 413.751 1342.37 409.403 1346.79 406.369C1351.21 403.335 1356.47 401.769 1361.83 401.894C1375.96 401.894 1387.45 412.383 1387.45 425.278C1387.45 426.164 1387.8 427.013 1388.43 427.64C1389.05 428.266 1389.9 428.618 1390.79 428.618C1393.59 428.49 1396.33 429.47 1398.41 431.346C1400.49 433.222 1401.75 435.842 1401.91 438.64C1401.75 441.437 1400.49 444.058 1398.41 445.933C1396.33 447.809 1393.59 448.789 1390.79 448.661H1375.19C1374.3 448.661 1373.45 449.013 1372.83 449.64C1372.2 450.266 1371.85 451.116 1371.85 452.002C1371.85 452.888 1372.2 453.737 1372.83 454.364C1373.45 454.99 1374.3 455.342 1375.19 455.342H1390.79C1395.36 455.477 1399.8 453.796 1403.14 450.666C1406.48 447.536 1408.44 443.212 1408.59 438.64C1408.49 434.615 1406.96 430.757 1404.28 427.75C1401.6 424.742 1397.95 422.778 1393.96 422.204C1392.84 414.549 1388.95 407.571 1383.03 402.595C1377.11 397.62 1369.56 394.993 1361.83 395.213C1355.4 395.125 1349.09 396.944 1343.7 400.44Z" fill="url(#paint0_linear_413_784)"/>
    <path d="M1361.01 436.775C1358.05 429.911 1353.13 424.078 1346.86 420.013C1340.59 415.948 1333.25 413.833 1325.78 413.935C1316.79 413.679 1308.01 416.734 1301.13 422.52C1294.24 428.305 1289.71 436.419 1288.41 445.321C1283.78 445.988 1279.53 448.272 1276.42 451.769C1273.3 455.266 1271.53 459.751 1271.4 464.432C1271.58 469.748 1273.86 474.776 1277.74 478.416C1281.62 482.055 1286.79 484.01 1292.1 483.853H1310.24C1311.27 483.853 1312.26 483.444 1312.99 482.715C1313.72 481.987 1314.13 480.999 1314.13 479.969C1314.13 478.939 1313.72 477.951 1312.99 477.222C1312.26 476.494 1311.27 476.084 1310.24 476.084H1292.1C1288.85 476.233 1285.67 475.093 1283.24 472.912C1280.82 470.731 1279.36 467.684 1279.17 464.432C1279.36 461.179 1280.82 458.132 1283.24 455.951C1285.67 453.77 1288.85 452.63 1292.1 452.779C1293.13 452.779 1294.12 452.369 1294.85 451.641C1295.58 450.912 1295.99 449.924 1295.99 448.894C1295.99 433.901 1309.35 421.704 1325.78 421.704C1332.01 421.559 1338.13 423.379 1343.27 426.907C1348.41 430.435 1352.3 435.491 1354.41 441.359C1354.63 442.062 1355.05 442.687 1355.61 443.161C1356.18 443.636 1356.86 443.94 1357.59 444.039C1361.57 444.46 1365.27 446.309 1367.99 449.245C1370.71 452.18 1372.27 456.003 1372.39 460.003C1372.24 464.41 1370.35 468.577 1367.13 471.591C1363.91 474.605 1359.63 476.221 1355.22 476.084H1325.78C1324.75 476.084 1323.76 476.494 1323.03 477.222C1322.31 477.951 1321.9 478.939 1321.9 479.969C1321.9 480.999 1322.31 481.987 1323.03 482.715C1323.76 483.444 1324.75 483.853 1325.78 483.853H1355.22C1361.69 483.978 1367.94 481.54 1372.61 477.072C1377.28 472.603 1380 466.467 1380.16 460.003C1380.06 454.538 1378.11 449.267 1374.64 445.049C1371.16 440.831 1366.36 437.915 1361.01 436.775Z" fill="url(#paint1_linear_413_784)"/>

    <defs>
        <linearGradient id="paint0_linear_413_784" x1="1364.7" y1="395.2" x2="1364.7" y2="455.35" gradientUnits="userSpaceOnUse">
        <stop stop-color="#9EA8E1"/>
        <stop offset="1" stop-color="#D0D7F1"/>
        </linearGradient>
        <linearGradient id="paint1_linear_413_784" x1="1325.78" y1="413.92" x2="1325.78" y2="483.862" gradientUnits="userSpaceOnUse">
        <stop stop-color="#A1D2FA"/>
        <stop offset="1" stop-color="#DCE2F6"/>
        </linearGradient>
    </defs>
</svg>