<svg width='200' height='200' viewBox='163 655 200 200' fill="none" xmlns="http://www.w3.org/2000/svg">
    <path d="M297.018 721.13C293.717 714.145 288.45 708.276 281.862 704.242C275.274 700.208 267.652 698.184 259.93 698.418C239.6 698.418 222.754 712.089 220.505 729.641C215.706 730.268 211.281 732.566 208.007 736.13C204.733 739.695 202.818 744.298 202.6 749.133C202.908 754.683 205.4 759.886 209.531 763.604C213.663 767.323 219.098 769.255 224.65 768.978H242.29C243.46 768.978 244.581 768.514 245.408 767.687C246.235 766.859 246.7 765.738 246.7 764.568C246.7 763.399 246.235 762.277 245.408 761.45C244.581 760.623 243.46 760.158 242.29 760.158H224.65C221.441 760.417 218.258 759.407 215.785 757.346C213.311 755.285 211.744 752.336 211.42 749.133C211.744 745.93 213.311 742.981 215.785 740.92C218.258 738.859 221.441 737.849 224.65 738.108C225.82 738.108 226.941 737.644 227.768 736.817C228.595 735.989 229.06 734.868 229.06 733.698C229.06 719.101 242.908 707.238 259.93 707.238C266.251 707.017 272.488 708.742 277.796 712.181C283.104 715.62 287.228 720.606 289.609 726.466C289.878 727.254 290.365 727.949 291.013 728.472C291.66 728.995 292.443 729.324 293.27 729.42C297.226 729.692 300.948 731.395 303.74 734.212C306.532 737.028 308.203 740.765 308.44 744.723C308.123 749.1 306.093 753.175 302.791 756.065C299.489 758.954 295.18 760.425 290.8 760.158H259.93C258.76 760.158 257.639 760.623 256.812 761.45C255.985 762.277 255.52 763.399 255.52 764.568C255.52 765.738 255.985 766.859 256.812 767.687C257.639 768.514 258.76 768.978 259.93 768.978H290.8C297.521 769.253 304.077 766.856 309.036 762.311C313.994 757.766 316.951 751.442 317.26 744.723C317.068 739.076 314.958 733.663 311.279 729.375C307.6 725.086 302.57 722.178 297.018 721.13Z" fill="url(#paint32_linear_413_784)"/>
    <path d="M227.517 787.676C226.718 786.993 225.702 786.618 224.65 786.618C223.599 786.618 222.583 786.993 221.784 787.676C212.611 795.438 208.819 807.698 213.184 815.415C214.489 817.703 216.479 819.523 218.873 820.619C220.683 821.463 222.654 821.9 224.65 821.9C226.647 821.9 228.618 821.463 230.428 820.619C232.822 819.523 234.812 817.703 236.116 815.415C240.482 807.698 236.69 795.438 227.517 787.676ZM228.443 811.093C228.005 811.758 227.396 812.291 226.679 812.637C226.048 812.921 225.364 813.067 224.673 813.067C223.981 813.067 223.297 812.921 222.666 812.637C221.952 812.304 221.354 811.767 220.946 811.093C219.403 808.668 220.24 802.538 224.65 797.29C226.433 799.059 227.722 801.264 228.387 803.686C229.052 806.108 229.072 808.662 228.443 811.093Z" fill="url(#paint33_linear_413_784)"/>
    <path d="M298.076 787.676C297.278 786.993 296.261 786.618 295.21 786.618C294.159 786.618 293.142 786.993 292.343 787.676C283.171 795.526 279.378 807.698 283.523 815.415C284.828 817.703 286.818 819.523 289.212 820.619C291.021 821.463 292.993 821.9 294.989 821.9C296.985 821.9 298.957 821.463 300.766 820.619C303.161 819.523 305.151 817.703 306.455 815.415C311.042 807.698 307.249 795.438 298.076 787.676ZM299.002 811.093C298.564 811.758 297.955 812.291 297.238 812.637C296.608 812.921 295.924 813.067 295.232 813.067C294.54 813.067 293.856 812.921 293.225 812.637C292.512 812.304 291.913 811.767 291.505 811.093C290.006 808.492 290.932 802.538 295.254 797.29C297.029 799.064 298.309 801.271 298.967 803.693C299.624 806.114 299.637 808.666 299.002 811.093Z" fill="url(#paint34_linear_413_784)"/>
    <path d="M262.797 778.856C261.998 778.173 260.981 777.797 259.93 777.797C258.879 777.797 257.863 778.173 257.064 778.856C247.891 786.706 244.098 798.877 248.464 806.595C249.769 808.883 251.759 810.703 254.153 811.799C255.962 812.642 257.934 813.079 259.93 813.079C261.926 813.079 263.898 812.642 265.707 811.799C268.102 810.703 270.092 808.883 271.396 806.595C275.762 798.877 271.97 786.618 262.797 778.856ZM263.723 802.273C263.285 802.937 262.675 803.471 261.959 803.817C261.328 804.1 260.644 804.247 259.952 804.247C259.261 804.247 258.577 804.1 257.946 803.817C257.232 803.484 256.633 802.947 256.226 802.273C254.726 799.671 255.653 793.718 259.974 788.47C261.749 790.243 263.029 792.451 263.687 794.872C264.345 797.294 264.357 799.845 263.723 802.273Z" fill="url(#paint35_linear_413_784)"/>

    <defs>
        <linearGradient id="paint32_linear_413_784" x1="259.93" y1="698.4" x2="259.93" y2="769.004" gradientUnits="userSpaceOnUse">
        <stop stop-color="#9EA8E1"/>
        <stop offset="1" stop-color="#D0D7F1"/>
        </linearGradient>
        <linearGradient id="paint33_linear_413_784" x1="224.65" y1="786.618" x2="224.65" y2="821.9" gradientUnits="userSpaceOnUse">
        <stop stop-color="#7CB1F8"/>
        <stop offset="1" stop-color="#3495E3"/>
        </linearGradient>
        <linearGradient id="paint34_linear_413_784" x1="295.128" y1="786.618" x2="295.128" y2="821.9" gradientUnits="userSpaceOnUse">
        <stop stop-color="#7CB1F8"/>
        <stop offset="1" stop-color="#3495E3"/>
        </linearGradient>
        <linearGradient id="paint35_linear_413_784" x1="259.93" y1="777.797" x2="259.93" y2="813.079" gradientUnits="userSpaceOnUse">
        <stop stop-color="#7CB1F8"/>
        <stop offset="1" stop-color="#3495E3"/>
        </linearGradient>
    </defs>
</svg>