<svg width='200' height='200' viewBox='973 655 200 200' fill="none" xmlns="http://www.w3.org/2000/svg">
    <path d="M1120.73 760.679L1126.06 755.398C1126.83 754.627 1127.26 753.582 1127.26 752.492C1127.26 751.402 1126.83 750.356 1126.06 749.585C1125.29 748.815 1124.24 748.382 1123.15 748.382C1122.06 748.382 1121.01 748.815 1120.24 749.585L1113.28 756.585H1106.78L1114.14 746.761C1114.47 746.331 1114.7 745.841 1114.83 745.321C1114.97 744.8 1115 744.258 1114.92 743.726C1114.85 743.194 1114.67 742.682 1114.39 742.219C1114.12 741.757 1113.76 741.352 1113.33 741.03C1112.89 740.707 1112.41 740.473 1111.88 740.339C1111.36 740.206 1110.82 740.176 1110.29 740.252C1109.76 740.328 1109.25 740.508 1108.78 740.782C1108.32 741.056 1107.92 741.419 1107.59 741.849L1096.54 756.585H1086.31C1085.89 756.6 1085.47 756.683 1085.08 756.831C1084.21 756.563 1083.27 756.595 1082.42 756.921C1081.56 757.248 1080.84 757.85 1080.37 758.632L1074.56 768.62H1065.31L1060.56 760.433L1064.37 752.246H1078.12C1078.61 752.23 1079.09 752.133 1079.55 751.96H1079.84C1080.26 751.753 1080.64 751.492 1080.99 751.182C1081.17 751.01 1081.34 750.818 1081.48 750.609L1088.11 739.966L1105.59 739.147C1106.64 739.094 1107.63 738.64 1108.35 737.878C1109.08 737.116 1109.48 736.104 1109.48 735.053C1109.48 734.498 1109.37 733.949 1109.15 733.438C1108.93 732.928 1108.61 732.467 1108.21 732.084C1107.8 731.701 1107.33 731.404 1106.81 731.211C1106.29 731.017 1105.73 730.932 1105.18 730.96L1093.35 731.492L1096.66 726.129L1106.28 724.328C1107.37 724.127 1108.33 723.503 1108.96 722.594C1109.58 721.684 1109.82 720.563 1109.62 719.477C1109.42 718.392 1108.8 717.43 1107.89 716.805C1106.98 716.179 1105.86 715.94 1104.77 716.141L1097.4 717.533L1096.01 710.206C1095.81 709.12 1095.18 708.158 1094.27 707.533C1093.37 706.907 1092.24 706.668 1091.16 706.869C1090.07 707.07 1089.11 707.694 1088.49 708.604C1087.86 709.513 1087.62 710.634 1087.82 711.72L1089.66 721.545L1086.31 727.235L1082.21 715.404C1082.07 714.862 1081.82 714.355 1081.47 713.915C1081.12 713.475 1080.69 713.111 1080.19 712.845C1079.7 712.58 1079.16 712.419 1078.6 712.373C1078.04 712.326 1077.48 712.395 1076.94 712.575C1076.41 712.755 1075.92 713.042 1075.51 713.418C1075.09 713.795 1074.76 714.253 1074.53 714.764C1074.3 715.275 1074.17 715.828 1074.16 716.389C1074.16 716.95 1074.26 717.506 1074.48 718.024L1080.78 736.404L1075.83 744.059H1064C1064 744.059 1064 743.814 1064 743.732L1058.27 735.258L1064.2 717.82C1064.52 716.772 1064.41 715.64 1063.9 714.673C1063.39 713.705 1062.51 712.982 1061.46 712.662C1060.41 712.341 1059.28 712.45 1058.31 712.965C1057.35 713.479 1056.62 714.357 1056.3 715.404L1052.21 726.989L1048.57 721.627L1050.41 711.925C1050.51 711.387 1050.5 710.835 1050.39 710.301C1050.27 709.766 1050.05 709.259 1049.74 708.808C1049.43 708.358 1049.04 707.973 1048.58 707.675C1048.12 707.378 1047.61 707.173 1047.07 707.074C1046.53 706.975 1045.98 706.982 1045.45 707.096C1044.91 707.21 1044.41 707.428 1043.95 707.737C1043.5 708.047 1043.12 708.443 1042.82 708.901C1042.52 709.36 1042.32 709.873 1042.22 710.41L1041.28 717.533L1033.75 716.141C1033.21 716.039 1032.66 716.044 1032.12 716.155C1031.59 716.266 1031.08 716.482 1030.62 716.79C1029.71 717.412 1029.08 718.371 1028.88 719.457C1028.67 720.543 1028.9 721.666 1029.52 722.579C1030.15 723.493 1031.11 724.122 1032.19 724.328L1041.93 726.17L1045.58 731.533L1033.3 730.96C1032.21 730.96 1031.17 731.391 1030.4 732.159C1029.63 732.926 1029.2 733.968 1029.2 735.053C1029.2 736.139 1029.63 737.18 1030.4 737.948C1031.17 738.716 1032.21 739.147 1033.3 739.147L1051.72 740.007L1057.08 748.153L1053.31 756.34H1043.33L1032.27 741.603C1031.62 740.734 1030.65 740.16 1029.58 740.007C1028.5 739.853 1027.41 740.133 1026.54 740.784C1025.67 741.436 1025.1 742.405 1024.95 743.48C1024.79 744.555 1025.07 745.647 1025.72 746.515L1033.09 756.585H1026.58L1019.62 749.585C1018.85 748.815 1017.81 748.382 1016.72 748.382C1015.63 748.382 1014.58 748.815 1013.81 749.585C1013.04 750.356 1012.61 751.402 1012.61 752.492C1012.61 753.582 1013.04 754.627 1013.81 755.398L1019.13 760.679L1013.81 765.96C1013.43 766.34 1013.12 766.793 1012.91 767.292C1012.71 767.791 1012.6 768.326 1012.6 768.866C1012.6 769.406 1012.71 769.941 1012.91 770.44C1013.12 770.939 1013.43 771.392 1013.81 771.772C1014.19 772.156 1014.64 772.461 1015.14 772.668C1015.64 772.876 1016.18 772.983 1016.72 772.983C1017.26 772.983 1017.79 772.876 1018.29 772.668C1018.79 772.461 1019.24 772.156 1019.62 771.772L1026.58 764.772H1033.09L1025.72 774.597C1025.07 775.466 1024.79 776.557 1024.95 777.632C1025.1 778.707 1025.67 779.677 1026.54 780.328C1027.25 780.859 1028.11 781.147 1029 781.147C1029.63 781.147 1030.26 780.999 1030.83 780.715C1031.4 780.43 1031.89 780.018 1032.27 779.509L1043.33 764.772H1053.56L1057.86 772.182L1052.45 780.123L1034.11 780.901C1033.03 780.901 1031.99 781.332 1031.22 782.1C1030.45 782.868 1030.02 783.909 1030.02 784.995C1030.02 786.08 1030.45 787.121 1031.22 787.889C1031.99 788.657 1033.03 789.088 1034.11 789.088L1046.4 788.515L1042.75 793.878L1033.05 795.72C1031.96 795.823 1030.96 796.353 1030.27 797.194C1029.58 798.034 1029.24 799.116 1029.35 800.202C1029.45 801.288 1029.98 802.288 1030.82 802.983C1031.66 803.678 1032.74 804.01 1033.83 803.907C1034.07 803.947 1034.32 803.947 1034.57 803.907L1041.93 802.515L1043.33 809.883C1043.51 810.829 1044.02 811.681 1044.77 812.287C1045.52 812.894 1046.46 813.217 1047.42 813.199H1048.2C1048.73 813.101 1049.23 812.899 1049.68 812.605C1050.14 812.31 1050.52 811.93 1050.83 811.485C1051.13 811.04 1051.35 810.539 1051.46 810.011C1051.57 809.484 1051.57 808.939 1051.47 808.41L1049.59 798.667L1053.56 793.182L1057.65 804.807C1057.93 805.62 1058.45 806.327 1059.15 806.826C1059.85 807.326 1060.68 807.593 1061.54 807.591C1061.99 807.581 1062.43 807.498 1062.85 807.345C1063.88 806.992 1064.72 806.246 1065.2 805.271C1065.67 804.296 1065.74 803.173 1065.39 802.147L1059.41 784.749L1064.65 776.808H1076.16L1081.56 784.749L1075.62 802.188C1075.28 803.203 1075.35 804.312 1075.82 805.276C1076.29 806.241 1077.11 806.983 1078.12 807.345C1078.54 807.498 1078.98 807.581 1079.43 807.591C1080.32 807.638 1081.21 807.391 1081.95 806.888C1082.68 806.385 1083.24 805.655 1083.52 804.807L1087.62 793.182L1091.26 798.544L1089.42 808.287C1089.32 808.817 1089.32 809.361 1089.43 809.889C1089.54 810.416 1089.76 810.917 1090.06 811.362C1090.37 811.807 1090.75 812.188 1091.21 812.482C1091.66 812.776 1092.16 812.978 1092.69 813.076H1093.47C1094.43 813.094 1095.37 812.771 1096.12 812.164C1096.87 811.558 1097.38 810.707 1097.56 809.761L1098.96 802.392L1106.28 803.784C1106.54 803.822 1106.8 803.822 1107.06 803.784C1108.15 803.887 1109.23 803.555 1110.07 802.86C1110.91 802.165 1111.44 801.165 1111.54 800.079C1111.65 798.994 1111.32 797.911 1110.62 797.071C1109.93 796.23 1108.93 795.7 1107.84 795.597L1098.14 793.755L1094.45 788.392L1106.73 788.965H1106.78C1107.86 788.965 1108.9 788.534 1109.67 787.766C1110.44 786.999 1110.87 785.957 1110.87 784.872C1110.87 783.786 1110.44 782.745 1109.67 781.977C1108.9 781.21 1107.86 780.778 1106.78 780.778L1088.4 779.919L1082.62 771.486C1082.62 771.486 1082.62 771.486 1082.42 771.24L1086.31 764.772H1096.54L1107.59 779.509C1107.98 780.018 1108.47 780.43 1109.04 780.715C1109.61 780.999 1110.23 781.147 1110.87 781.147C1111.75 781.147 1112.62 780.859 1113.33 780.328C1113.76 780.005 1114.12 779.601 1114.39 779.139C1114.67 778.676 1114.85 778.164 1114.92 777.632C1115 777.1 1114.97 776.558 1114.83 776.037C1114.7 775.516 1114.47 775.027 1114.14 774.597L1106.78 764.772H1113.28L1120.24 771.772C1120.62 772.156 1121.08 772.461 1121.58 772.668C1122.07 772.876 1122.61 772.983 1123.15 772.983C1123.69 772.983 1124.23 772.876 1124.72 772.668C1125.22 772.461 1125.68 772.156 1126.06 771.772C1126.44 771.392 1126.74 770.939 1126.95 770.44C1127.16 769.941 1127.27 769.406 1127.27 768.866C1127.27 768.326 1127.16 767.791 1126.95 767.292C1126.74 766.793 1126.44 766.34 1126.06 765.96L1120.73 760.679Z" fill="url(#paint6_linear_413_784)"/>
    
    <defs>
        <linearGradient id="paint6_linear_413_784" x1="1069.93" y1="706.8" x2="1069.93" y2="813.2" gradientUnits="userSpaceOnUse">
        <stop stop-color="#D5DBF3"/>
        <stop offset="1" stop-color="#A0CFF6"/>
        </linearGradient>
    </defs>
</svg>