<svg width='200' height='200' viewBox='700 655 200 200' fill="none" xmlns="http://www.w3.org/2000/svg">
    <path d="M836.269 720.949C832.994 714.02 827.768 708.198 821.233 704.196C814.697 700.193 807.135 698.185 799.475 698.418C779.306 698.418 762.594 711.981 760.363 729.393C755.602 730.015 751.212 732.295 747.964 735.831C744.716 739.367 742.817 743.934 742.6 748.731C742.905 754.236 745.378 759.398 749.476 763.087C753.575 766.776 758.968 768.692 764.475 768.418H772.656L768.85 785.218C768.711 785.864 768.72 786.533 768.877 787.175C769.034 787.817 769.334 788.416 769.755 788.925C770.176 789.434 770.707 789.842 771.308 790.117C771.909 790.391 772.564 790.527 773.225 790.512H781.188L777.6 815.931C777.462 816.902 777.654 817.892 778.146 818.741C778.638 819.59 779.401 820.249 780.313 820.612C780.842 820.821 781.406 820.925 781.975 820.918C782.68 820.917 783.375 820.745 784 820.418C784.624 820.09 785.161 819.616 785.563 819.037L816.188 775.287C816.619 774.649 816.875 773.909 816.929 773.14C816.982 772.372 816.832 771.603 816.494 770.912C816.143 770.174 815.592 769.549 814.903 769.108C814.215 768.668 813.417 768.429 812.6 768.418H801.138L807.831 747.899C808.042 747.257 808.1 746.574 808.002 745.905C807.904 745.236 807.652 744.599 807.266 744.043C806.88 743.488 806.371 743.03 805.778 742.704C805.186 742.379 804.526 742.195 803.85 742.168H781.975C780.964 742.143 779.975 742.47 779.177 743.092C778.38 743.714 777.822 744.594 777.6 745.581L774.581 759.668H764.475C761.291 759.925 758.134 758.923 755.68 756.878C753.226 754.834 751.672 751.908 751.35 748.731C751.672 745.553 753.226 742.628 755.68 740.583C758.134 738.538 761.291 737.536 764.475 737.793C765.635 737.793 766.748 737.332 767.569 736.512C768.389 735.691 768.85 734.578 768.85 733.418C768.85 718.937 782.588 707.168 799.475 707.168C805.746 706.948 811.933 708.66 817.199 712.072C822.465 715.483 826.556 720.43 828.919 726.243C829.186 727.025 829.668 727.715 830.311 728.233C830.954 728.752 831.73 729.078 832.55 729.174C836.475 729.444 840.168 731.133 842.937 733.927C845.707 736.721 847.365 740.428 847.6 744.356C847.286 748.697 845.272 752.74 841.996 755.607C838.72 758.474 834.445 759.933 830.1 759.668H825.725C824.565 759.668 823.452 760.129 822.632 760.949C821.811 761.77 821.35 762.883 821.35 764.043C821.35 765.203 821.811 766.316 822.632 767.137C823.452 767.957 824.565 768.418 825.725 768.418H830.1C836.768 768.691 843.272 766.313 848.191 761.804C853.11 757.295 856.043 751.021 856.35 744.356C856.159 738.753 854.067 733.383 850.417 729.129C846.767 724.874 841.777 721.99 836.269 720.949ZM785.475 750.918H797.638L790.944 771.437C790.73 772.093 790.674 772.791 790.782 773.473C790.889 774.155 791.156 774.802 791.562 775.361C791.967 775.92 792.499 776.376 793.114 776.69C793.729 777.004 794.41 777.168 795.1 777.168H804.2L788.888 799.043L790.725 786.531C790.813 785.906 790.764 785.27 790.583 784.666C790.402 784.062 790.092 783.504 789.675 783.031C789.26 782.558 788.749 782.181 788.175 781.924C787.601 781.668 786.979 781.538 786.35 781.543H778.781L785.475 750.918Z" fill="url(#paint2_linear_413_784)"/>
    <path fill-rule="evenodd" clip-rule="evenodd" d="M772.656 768.418L768.85 785.218C768.711 785.864 768.721 786.534 768.877 787.176C769.034 787.818 769.334 788.416 769.755 788.925C770.176 789.435 770.707 789.842 771.308 790.117C771.909 790.392 772.565 790.527 773.225 790.512H781.188L777.6 815.931C777.462 816.902 777.654 817.892 778.146 818.741C778.638 819.59 779.401 820.249 780.313 820.612C780.842 820.821 781.406 820.925 781.975 820.918C782.681 820.917 783.375 820.745 784 820.418C784.624 820.09 785.161 819.617 785.563 819.037L816.188 775.287C816.619 774.649 816.875 773.909 816.929 773.141C816.982 772.373 816.832 771.604 816.494 770.912C816.143 770.174 815.592 769.549 814.903 769.109C814.215 768.668 813.417 768.429 812.6 768.418H801.138L807.831 747.9C808.042 747.257 808.1 746.574 808.002 745.905C807.904 745.236 807.652 744.599 807.266 744.044C806.881 743.488 806.371 743.03 805.779 742.705C805.186 742.379 804.526 742.196 803.85 742.168H781.975C780.964 742.144 779.975 742.47 779.178 743.092C778.38 743.714 777.822 744.594 777.6 745.581L772.656 768.418ZM797.638 750.918H785.475L778.781 781.543H786.35C786.979 781.538 787.601 781.668 788.175 781.925C788.749 782.181 789.26 782.559 789.675 783.031C790.092 783.504 790.402 784.062 790.583 784.666C790.764 785.27 790.813 785.906 790.725 786.531L788.888 799.043L804.2 777.168H795.1C794.41 777.168 793.729 777.004 793.114 776.69C792.499 776.376 791.967 775.921 791.562 775.362C791.156 774.803 790.889 774.156 790.782 773.474C790.674 772.791 790.73 772.094 790.944 771.437L797.638 750.918Z" fill="url(#paint3_linear_413_784)"/>

    <defs>
        <linearGradient id="paint2_linear_413_784" x1="799.475" y1="698.4" x2="799.475" y2="820.918" gradientUnits="userSpaceOnUse">
        <stop stop-color="#9EA8E1"/>
        <stop offset="1" stop-color="#D0D7F1"/>
        </linearGradient>
        <linearGradient id="paint3_linear_413_784" x1="792.846" y1="742.167" x2="792.846" y2="820.919" gradientUnits="userSpaceOnUse">
        <stop stop-color="#FFB831"/>
        <stop offset="1" stop-color="#FADA69"/>
        </linearGradient>
    </defs>
</svg>