<svg width='200' height='200' viewBox='163 343 200 200' fill="none" xmlns="http://www.w3.org/2000/svg">
    <path d="M259.65 395.9C260.81 395.9 261.923 395.439 262.743 394.618C263.564 393.798 264.025 392.685 264.025 391.525V382.775C264.025 381.615 263.564 380.502 262.743 379.681C261.923 378.861 260.81 378.4 259.65 378.4C258.49 378.4 257.377 378.861 256.556 379.681C255.736 380.502 255.275 381.615 255.275 382.775V391.525C255.275 392.685 255.736 393.798 256.556 394.618C257.377 395.439 258.49 395.9 259.65 395.9Z" fill="url(#paint7_linear_413_784)"/>
    <path d="M259.65 483.4C258.49 483.4 257.377 483.861 256.556 484.681C255.736 485.502 255.275 486.615 255.275 487.775V496.525C255.275 497.685 255.736 498.798 256.556 499.618C257.377 500.439 258.49 500.9 259.65 500.9C260.81 500.9 261.923 500.439 262.743 499.618C263.564 498.798 264.025 497.685 264.025 496.525V487.775C264.025 486.615 263.564 485.502 262.743 484.681C261.923 483.861 260.81 483.4 259.65 483.4Z" fill="url(#paint8_linear_413_784)"/>
    <path d="M211.525 435.275H202.775C201.615 435.275 200.502 435.736 199.681 436.556C198.861 437.377 198.4 438.49 198.4 439.65C198.4 440.81 198.861 441.923 199.681 442.743C200.502 443.564 201.615 444.025 202.775 444.025H211.525C212.685 444.025 213.798 443.564 214.618 442.743C215.439 441.923 215.9 440.81 215.9 439.65C215.9 438.49 215.439 437.377 214.618 436.556C213.798 435.736 212.685 435.275 211.525 435.275Z" fill="url(#paint9_linear_413_784)"/>
    <path d="M316.525 435.275H307.775C306.615 435.275 305.502 435.736 304.681 436.556C303.861 437.377 303.4 438.49 303.4 439.65C303.4 440.81 303.861 441.923 304.681 442.743C305.502 443.564 306.615 444.025 307.775 444.025H316.525C317.685 444.025 318.798 443.564 319.618 442.743C320.439 441.923 320.9 440.81 320.9 439.65C320.9 438.49 320.439 437.377 319.618 436.556C318.798 435.736 317.685 435.275 316.525 435.275Z" fill="url(#paint10_linear_413_784)"/>
    <path d="M289.356 458.856C288.914 458.488 288.404 458.21 287.854 458.039C287.305 457.869 286.727 457.808 286.154 457.861C285.581 457.913 285.024 458.079 284.515 458.347C284.006 458.616 283.555 458.982 283.187 459.425C282.326 460.454 281.405 461.433 280.431 462.356C275.093 467.306 268.166 470.192 260.892 470.498C253.619 470.803 246.474 468.507 240.74 464.022C235.006 459.537 231.057 453.156 229.601 446.023C228.146 438.89 229.279 431.471 232.797 425.098C236.316 418.725 241.99 413.813 248.802 411.245C255.613 408.676 263.117 408.618 269.968 411.08C276.819 413.543 282.568 418.366 286.185 424.684C289.803 431.002 291.051 438.401 289.706 445.556C289.486 446.716 289.735 447.917 290.4 448.893C291.064 449.87 292.089 450.542 293.25 450.762C294.41 450.983 295.611 450.733 296.587 450.069C297.563 449.404 298.236 448.379 298.456 447.219C300.199 438.021 298.608 428.504 293.969 420.374C289.33 412.243 281.946 406.031 273.142 402.852C264.337 399.673 254.688 399.735 245.925 403.026C237.162 406.318 229.858 412.623 225.323 420.812C220.789 429.002 219.32 438.538 221.18 447.713C223.04 456.887 228.108 465.098 235.475 470.874C242.841 476.649 252.025 479.612 261.378 479.229C270.731 478.847 279.642 475.145 286.512 468.787C287.786 467.609 288.984 466.353 290.1 465.025C290.458 464.572 290.724 464.053 290.88 463.497C291.037 462.941 291.082 462.359 291.013 461.786C290.944 461.212 290.762 460.658 290.478 460.155C290.193 459.652 289.812 459.211 289.356 458.856Z" fill="url(#paint11_linear_413_784)"/>
    <path d="M293.687 409.987C294.263 409.991 294.834 409.88 295.367 409.663C295.9 409.445 296.385 409.124 296.794 408.719L302.962 402.506C303.42 402.114 303.792 401.631 304.055 401.088C304.318 400.546 304.465 399.954 304.488 399.352C304.512 398.749 304.41 398.149 304.19 397.587C303.97 397.026 303.637 396.516 303.21 396.09C302.784 395.663 302.274 395.33 301.713 395.11C301.151 394.89 300.55 394.788 299.948 394.811C299.345 394.835 298.754 394.982 298.211 395.245C297.669 395.507 297.186 395.879 296.794 396.337L290.581 402.506C290.171 402.913 289.846 403.397 289.624 403.93C289.401 404.463 289.287 405.035 289.287 405.612C289.287 406.19 289.401 406.762 289.624 407.295C289.846 407.828 290.171 408.312 290.581 408.719C290.99 409.124 291.475 409.445 292.008 409.663C292.541 409.88 293.112 409.991 293.687 409.987Z" fill="url(#paint12_linear_413_784)"/>
    <path d="M222.506 470.581L216.338 476.794C215.523 477.613 215.065 478.722 215.065 479.878C215.065 481.034 215.523 482.143 216.338 482.962C216.746 483.368 217.231 483.689 217.764 483.906C218.297 484.124 218.868 484.234 219.444 484.231C220.592 484.226 221.692 483.771 222.506 482.962L228.719 476.794C229.543 475.97 230.006 474.852 230.006 473.687C230.006 472.522 229.543 471.405 228.719 470.581C227.895 469.757 226.778 469.294 225.613 469.294C224.448 469.294 223.33 469.757 222.506 470.581Z" fill="url(#paint13_linear_413_784)"/>
    <path d="M222.506 408.718C222.915 409.123 223.4 409.444 223.933 409.662C224.466 409.88 225.037 409.99 225.613 409.987C226.188 409.99 226.759 409.88 227.292 409.662C227.825 409.444 228.31 409.123 228.719 408.718C229.129 408.311 229.454 407.827 229.677 407.294C229.899 406.761 230.013 406.189 230.013 405.612C230.013 405.034 229.899 404.462 229.677 403.929C229.454 403.396 229.129 402.912 228.719 402.505L222.506 396.337C221.669 395.62 220.593 395.245 219.492 395.288C218.391 395.33 217.346 395.787 216.567 396.566C215.788 397.345 215.331 398.39 215.289 399.491C215.246 400.592 215.621 401.668 216.338 402.505L222.506 408.718Z" fill="url(#paint14_linear_413_784)"/>
    <path d="M296.794 470.581C295.97 469.757 294.852 469.294 293.687 469.294C292.522 469.294 291.405 469.757 290.581 470.581C289.757 471.405 289.294 472.522 289.294 473.687C289.294 474.852 289.757 475.97 290.581 476.794L296.794 482.962C297.608 483.771 298.708 484.226 299.856 484.231C300.432 484.234 301.003 484.124 301.536 483.906C302.069 483.689 302.554 483.368 302.962 482.962C303.777 482.143 304.235 481.034 304.235 479.878C304.235 478.722 303.777 477.613 302.962 476.794L296.794 470.581Z" fill="url(#paint15_linear_413_784)"/>
    <defs>
        <linearGradient id="paint7_linear_413_784" x1="259.65" y1="378.4" x2="259.65" y2="395.9" gradientUnits="userSpaceOnUse">
        <stop stop-color="#FAC86A"/>
        <stop offset="1" stop-color="#F1674C"/>
        </linearGradient>
        <linearGradient id="paint8_linear_413_784" x1="259.65" y1="483.4" x2="259.65" y2="500.9" gradientUnits="userSpaceOnUse">
        <stop stop-color="#FAC86A"/>
        <stop offset="1" stop-color="#F1674C"/>
        </linearGradient>
        <linearGradient id="paint9_linear_413_784" x1="207.15" y1="435.275" x2="207.15" y2="444.025" gradientUnits="userSpaceOnUse">
        <stop stop-color="#FAC86A"/>
        <stop offset="1" stop-color="#F1674C"/>
        </linearGradient>
        <linearGradient id="paint10_linear_413_784" x1="312.15" y1="435.275" x2="312.15" y2="444.025" gradientUnits="userSpaceOnUse">
        <stop stop-color="#FAC86A"/>
        <stop offset="1" stop-color="#F1674C"/>
        </linearGradient>
        <linearGradient id="paint11_linear_413_784" x1="259.77" y1="400.512" x2="259.77" y2="479.262" gradientUnits="userSpaceOnUse">
        <stop stop-color="#FAC86A"/>
        <stop offset="1" stop-color="#F1674C"/>
        </linearGradient>
        <linearGradient id="paint12_linear_413_784" x1="296.889" y1="394.808" x2="296.889" y2="409.987" gradientUnits="userSpaceOnUse">
        <stop stop-color="#FAC86A"/>
        <stop offset="1" stop-color="#F1674C"/>
        </linearGradient>
        <linearGradient id="paint13_linear_413_784" x1="222.535" y1="469.294" x2="222.535" y2="484.231" gradientUnits="userSpaceOnUse">
        <stop stop-color="#FAC86A"/>
        <stop offset="1" stop-color="#F1674C"/>
        </linearGradient>
        <linearGradient id="paint14_linear_413_784" x1="222.649" y1="395.285" x2="222.649" y2="409.987" gradientUnits="userSpaceOnUse">
        <stop stop-color="#FAC86A"/>
        <stop offset="1" stop-color="#F1674C"/>
        </linearGradient>
        <linearGradient id="paint15_linear_413_784" x1="296.764" y1="469.294" x2="296.764" y2="484.231" gradientUnits="userSpaceOnUse">
        <stop stop-color="#FAC86A"/>
        <stop offset="1" stop-color="#F1674C"/>
        </linearGradient>
    </defs>
</svg>