<svg width='200' height='200' viewBox='1239 655 200 200' fill="none" xmlns="http://www.w3.org/2000/svg">
    <path d="M1286.7 748.625H1333.79C1337.59 748.625 1341.23 747.012 1343.92 744.14C1346.61 741.268 1348.12 737.374 1348.12 733.312C1348.12 729.251 1346.61 725.357 1343.92 722.485C1341.23 719.613 1337.59 718 1333.79 718H1327.65C1326.56 718 1325.52 718.461 1324.75 719.281C1323.98 720.102 1323.55 721.215 1323.55 722.375C1323.55 723.535 1323.98 724.648 1324.75 725.469C1325.52 726.289 1326.56 726.75 1327.65 726.75H1333.79C1335.42 726.75 1336.98 727.441 1338.13 728.672C1339.28 729.903 1339.93 731.572 1339.93 733.312C1339.93 735.053 1339.28 736.722 1338.13 737.953C1336.98 739.184 1335.42 739.875 1333.79 739.875H1286.7C1285.61 739.875 1284.57 740.336 1283.8 741.156C1283.03 741.977 1282.6 743.09 1282.6 744.25C1282.6 745.41 1283.03 746.523 1283.8 747.344C1284.57 748.164 1285.61 748.625 1286.7 748.625Z" fill="url(#paint25_linear_413_784)"/>
    <path d="M1376.78 744.25H1382.93C1384.56 744.25 1386.12 744.941 1387.27 746.172C1388.42 747.403 1389.07 749.072 1389.07 750.812C1389.07 752.553 1388.42 754.222 1387.27 755.453C1386.12 756.684 1384.56 757.375 1382.93 757.375H1339.93C1338.84 757.375 1337.8 757.836 1337.03 758.656C1336.27 759.477 1335.83 760.59 1335.83 761.75C1335.83 762.91 1336.27 764.023 1337.03 764.844C1337.8 765.664 1338.84 766.125 1339.93 766.125H1382.93C1386.73 766.125 1390.37 764.512 1393.06 761.64C1395.75 758.768 1397.26 754.874 1397.26 750.812C1397.26 746.751 1395.75 742.857 1393.06 739.985C1390.37 737.113 1386.73 735.5 1382.93 735.5H1376.78C1375.7 735.5 1374.66 735.961 1373.89 736.781C1373.12 737.602 1372.69 738.715 1372.69 739.875C1372.69 741.035 1373.12 742.148 1373.89 742.969C1374.66 743.789 1375.7 744.25 1376.78 744.25Z" fill="url(#paint26_linear_413_784)"/>
    <path d="M1307.17 757.375C1306.08 757.375 1305.04 757.836 1304.27 758.656C1303.51 759.477 1303.08 760.59 1303.08 761.75C1303.08 762.91 1303.51 764.023 1304.27 764.844C1305.04 765.664 1306.08 766.125 1307.17 766.125H1323.55C1324.64 766.125 1325.68 765.664 1326.45 764.844C1327.21 764.023 1327.65 762.91 1327.65 761.75C1327.65 760.59 1327.21 759.477 1326.45 758.656C1325.68 757.836 1324.64 757.375 1323.55 757.375H1307.17Z" fill="url(#paint27_linear_413_784)"/>
    <path d="M1382.93 770.5H1360.41C1359.32 770.5 1358.28 770.961 1357.51 771.781C1356.74 772.602 1356.31 773.715 1356.31 774.875C1356.31 776.035 1356.74 777.148 1357.51 777.969C1358.28 778.789 1359.32 779.25 1360.41 779.25H1382.93C1384.56 779.25 1386.12 779.941 1387.27 781.172C1388.42 782.403 1389.07 784.072 1389.07 785.812C1389.07 787.553 1388.42 789.222 1387.27 790.453C1386.12 791.684 1384.56 792.375 1382.93 792.375H1376.79C1375.7 792.375 1374.66 792.836 1373.89 793.656C1373.12 794.477 1372.69 795.59 1372.69 796.75C1372.69 797.91 1373.12 799.023 1373.89 799.844C1374.66 800.664 1375.7 801.125 1376.79 801.125H1382.93C1386.73 801.125 1390.37 799.512 1393.06 796.64C1395.75 793.768 1397.26 789.874 1397.26 785.812C1397.26 781.751 1395.75 777.857 1393.06 774.985C1390.37 772.113 1386.73 770.5 1382.93 770.5Z" fill="url(#paint28_linear_413_784)"/>
    <path d="M1344.03 770.5H1286.7C1285.61 770.5 1284.57 770.961 1283.8 771.781C1283.03 772.602 1282.6 773.715 1282.6 774.875C1282.6 776.035 1283.03 777.148 1283.8 777.969C1284.57 778.789 1285.61 779.25 1286.7 779.25H1344.03C1345.11 779.25 1346.15 778.789 1346.92 777.969C1347.69 777.148 1348.12 776.035 1348.12 774.875C1348.12 773.715 1347.69 772.602 1346.92 771.781C1346.15 770.961 1345.11 770.5 1344.03 770.5Z" fill="url(#paint29_linear_413_784)"/>
    <path d="M1335.83 788H1311.26C1310.18 788 1309.14 788.461 1308.37 789.281C1307.6 790.102 1307.17 791.215 1307.17 792.375C1307.17 793.535 1307.6 794.648 1308.37 795.469C1309.14 796.289 1310.18 796.75 1311.26 796.75H1335.83C1336.92 796.75 1337.96 796.289 1338.73 795.469C1339.5 794.648 1339.93 793.535 1339.93 792.375C1339.93 791.215 1339.5 790.102 1338.73 789.281C1337.96 788.461 1336.92 788 1335.83 788Z" fill="url(#paint30_linear_413_784)"/>
    <path d="M1294.89 788H1286.7C1285.61 788 1284.57 788.461 1283.8 789.281C1283.03 790.102 1282.6 791.215 1282.6 792.375C1282.6 793.535 1283.03 794.648 1283.8 795.469C1284.57 796.289 1285.61 796.75 1286.7 796.75H1294.89C1295.97 796.75 1297.01 796.289 1297.78 795.469C1298.55 794.648 1298.98 793.535 1298.98 792.375C1298.98 791.215 1298.55 790.102 1297.78 789.281C1297.01 788.461 1295.97 788 1294.89 788Z" fill="url(#paint31_linear_413_784)"/>

    <defs>
        <linearGradient id="paint25_linear_413_784" x1="1315.36" y1="718" x2="1315.36" y2="748.625" gradientUnits="userSpaceOnUse">
        <stop stop-color="#9EA8E1"/>
        <stop offset="1" stop-color="#D0D7F1"/>
        </linearGradient>
        <linearGradient id="paint26_linear_413_784" x1="1366.55" y1="735.5" x2="1366.55" y2="766.125" gradientUnits="userSpaceOnUse">
        <stop stop-color="#9EA8E1"/>
        <stop offset="1" stop-color="#D0D7F1"/>
        </linearGradient>
        <linearGradient id="paint27_linear_413_784" x1="1315.36" y1="757.375" x2="1315.36" y2="766.125" gradientUnits="userSpaceOnUse">
        <stop stop-color="#9EA8E1"/>
        <stop offset="1" stop-color="#D0D7F1"/>
        </linearGradient>
        <linearGradient id="paint28_linear_413_784" x1="1376.79" y1="770.5" x2="1376.79" y2="801.125" gradientUnits="userSpaceOnUse">
        <stop stop-color="#9EA8E1"/>
        <stop offset="1" stop-color="#D0D7F1"/>
        </linearGradient>
        <linearGradient id="paint29_linear_413_784" x1="1315.36" y1="770.5" x2="1315.36" y2="779.25" gradientUnits="userSpaceOnUse">
        <stop stop-color="#9EA8E1"/>
        <stop offset="1" stop-color="#D0D7F1"/>
        </linearGradient>
        <linearGradient id="paint30_linear_413_784" x1="1323.55" y1="788" x2="1323.55" y2="796.75" gradientUnits="userSpaceOnUse">
        <stop stop-color="#9EA8E1"/>
        <stop offset="1" stop-color="#D0D7F1"/>
        </linearGradient>
        <linearGradient id="paint31_linear_413_784" x1="1290.79" y1="788" x2="1290.79" y2="796.75" gradientUnits="userSpaceOnUse">
        <stop stop-color="#9EA8E1"/>
        <stop offset="1" stop-color="#D0D7F1"/>
        </linearGradient>
    </defs>

</svg>